<svg xmlns="http://www.w3.org/2000/svg" stroke-width="2" width="24" height="24" stroke="currentColor" stroke-linecap="round" stroke-linejoin="round" fill="none" viewBox="0 0 24 24" class="lucide lucide-building-2 w-12 h-12 text-blue-600 mb-2" data-astro-source-file="/Users/akgngr/httpd/astro-mosaik-russelsheim/node_modules/.pnpm/lucide-astro@0.469.0_astro@5.1.1_@types+node@22.10.3_jiti@1.21.7_rollup@4.29.1_terser@5.37.0__5e7zc6dzqabvgb7u7ff5snq2xm/node_modules/lucide-astro/dist/.Layout.astro" data-astro-source-loc="26:76">  <path d="M6 22V4a2 2 0 0 1 2-2h8a2 2 0 0 1 2 2v18Z" data-astro-source-file="/Users/akgngr/httpd/astro-mosaik-russelsheim/node_modules/.pnpm/lucide-astro@0.469.0_astro@5.1.1_@types+node@22.10.3_jiti@1.21.7_rollup@4.29.1_terser@5.37.0__5e7zc6dzqabvgb7u7ff5snq2xm/node_modules/lucide-astro/dist/Building2.astro" data-astro-source-loc="7:3"></path> <path d="M6 12H4a2 2 0 0 0-2 2v6a2 2 0 0 0 2 2h2" data-astro-source-file="/Users/akgngr/httpd/astro-mosaik-russelsheim/node_modules/.pnpm/lucide-astro@0.469.0_astro@5.1.1_@types+node@22.10.3_jiti@1.21.7_rollup@4.29.1_terser@5.37.0__5e7zc6dzqabvgb7u7ff5snq2xm/node_modules/lucide-astro/dist/Building2.astro" data-astro-source-loc="8:3"></path> <path d="M18 9h2a2 2 0 0 1 2 2v9a2 2 0 0 1-2 2h-2" data-astro-source-file="/Users/akgngr/httpd/astro-mosaik-russelsheim/node_modules/.pnpm/lucide-astro@0.469.0_astro@5.1.1_@types+node@22.10.3_jiti@1.21.7_rollup@4.29.1_terser@5.37.0__5e7zc6dzqabvgb7u7ff5snq2xm/node_modules/lucide-astro/dist/Building2.astro" data-astro-source-loc="9:3"></path> <path d="M10 6h4" data-astro-source-file="/Users/akgngr/httpd/astro-mosaik-russelsheim/node_modules/.pnpm/lucide-astro@0.469.0_astro@5.1.1_@types+node@22.10.3_jiti@1.21.7_rollup@4.29.1_terser@5.37.0__5e7zc6dzqabvgb7u7ff5snq2xm/node_modules/lucide-astro/dist/Building2.astro" data-astro-source-loc="10:3"></path> <path d="M10 10h4" data-astro-source-file="/Users/akgngr/httpd/astro-mosaik-russelsheim/node_modules/.pnpm/lucide-astro@0.469.0_astro@5.1.1_@types+node@22.10.3_jiti@1.21.7_rollup@4.29.1_terser@5.37.0__5e7zc6dzqabvgb7u7ff5snq2xm/node_modules/lucide-astro/dist/Building2.astro" data-astro-source-loc="11:3"></path> <path d="M10 14h4" data-astro-source-file="/Users/akgngr/httpd/astro-mosaik-russelsheim/node_modules/.pnpm/lucide-astro@0.469.0_astro@5.1.1_@types+node@22.10.3_jiti@1.21.7_rollup@4.29.1_terser@5.37.0__5e7zc6dzqabvgb7u7ff5snq2xm/node_modules/lucide-astro/dist/Building2.astro" data-astro-source-loc="12:3"></path> <path d="M10 18h4" data-astro-source-file="/Users/akgngr/httpd/astro-mosaik-russelsheim/node_modules/.pnpm/lucide-astro@0.469.0_astro@5.1.1_@types+node@22.10.3_jiti@1.21.7_rollup@4.29.1_terser@5.37.0__5e7zc6dzqabvgb7u7ff5snq2xm/node_modules/lucide-astro/dist/Building2.astro" data-astro-source-loc="13:3"></path>  </svg>