<svg viewBox="0 0 613 173" xmlns="http://www.w3.org/2000/svg" xml:space="preserve">
  <path d="M96.127 171.936V0H9.204l86.923 171.936z" style="fill:#1da2d3" />
  <path d="M96.133 172.19 95.92 0h87.473l-87.26 172.19z" style="fill:#1163b5" />
  <path d="m0 0 87.3 172.665H0V0z" style="fill:#de0c84" />
  <path d="M192.341 0 105.04 172.665h87.301V0z" style="fill:#a1d109" />
  <path d="M229.246 117.34h15.865V29.748h.331l13.221 87.592h15.205l13.221-87.592h.331v87.592h17.188V1.653h-25.947l-11.569 82.799h-.33L255.193 1.653h-25.947V117.34zM344.437 118.993c17.849 0 27.6-10.578 27.6-29.087V29.087c0-18.51-9.751-29.087-27.6-29.087-17.849 0-27.599 10.577-27.599 29.087v60.819c0 18.509 9.75 29.087 27.599 29.087zm0-16.527c-5.784 0-9.42-3.14-9.42-11.404V27.93c0-8.263 3.636-11.403 9.42-11.403 5.785 0 9.42 3.14 9.42 11.403v63.132c0 8.264-3.635 11.404-9.42 11.404zM407.9 118.993c17.849 0 27.434-10.578 27.434-29.418 0-14.378-4.792-23.633-19.997-37.02-11.899-10.412-15.7-16.527-15.7-24.955 0-7.933 3.305-11.073 9.089-11.073 5.785 0 9.09 3.14 9.09 11.403v5.95h17.188v-4.793c0-18.51-8.759-29.087-26.443-29.087s-27.104 10.577-27.104 28.757c0 13.221 4.958 22.641 20.163 36.028 11.899 10.412 15.535 16.527 15.535 26.112 0 8.594-3.636 11.569-9.42 11.569-5.785 0-9.421-2.975-9.421-11.238v-7.933h-17.187v6.611c0 18.509 8.924 29.087 26.773 29.087zM440.458 117.34h16.857l3.305-22.642h20.659v-.33l3.305 22.972h18.179L483.923 1.653h-24.625l-18.84 115.687zm22.311-38.342 7.933-57.183h.33l8.098 57.183h-16.361zM511.523 1.653h18.179V117.34h-18.179zM543.254 117.34h18.179V80.485l7.272-14.709 15.37 51.564h19.006L581.1 44.126l21.65-42.473h-18.179l-23.138 48.754V1.653h-18.179V117.34z" style="fill:#3266cb;fill-rule:nonzero" />
  <g>
    <path d="M230.071 172.134h8.905c5.831 0 8.693-3.233 8.693-9.17V144.2c0-5.937-2.862-9.171-8.693-9.171h-8.905v37.105zm5.83-5.3V140.33h2.969c1.855 0 2.968.954 2.968 3.605v19.294c0 2.651-1.113 3.605-2.968 3.605h-2.969zM251.591 135.029h5.831v37.105h-5.831zM260.232 172.134h5.406l1.061-7.262h6.626v-.106l1.06 7.368h5.83l-6.042-37.105h-7.898l-6.043 37.105zm7.156-12.297 2.544-18.341h.106l2.597 18.341h-5.247zM283.025 172.134h15.425v-5.3h-9.594v-31.805h-5.831v37.105zM309.476 172.665c5.724 0 8.852-3.393 8.852-9.33v-19.506c0-5.937-3.128-9.33-8.852-9.33-5.725 0-8.853 3.393-8.853 9.33v19.506c0 5.937 3.128 9.33 8.853 9.33zm0-5.301c-1.856 0-3.022-1.007-3.022-3.658v-20.248c0-2.651 1.166-3.658 3.022-3.658 1.855 0 3.021 1.007 3.021 3.658v20.248c0 2.651-1.166 3.658-3.021 3.658zM330.519 172.665c5.725 0 8.694-3.393 8.694-9.33v-12.138h-8.429v5.3h2.916v7.262c0 2.651-1.166 3.605-3.022 3.605-1.855 0-3.021-.954-3.021-3.605v-20.301c0-2.651 1.166-3.658 3.021-3.658 1.856 0 3.022 1.007 3.022 3.658v3.551h5.513v-3.18c0-5.937-2.969-9.33-8.694-9.33-5.724 0-8.693 3.393-8.693 9.33v19.506c0 5.937 2.969 9.33 8.693 9.33zM359.939 172.665c5.724 0 8.693-3.393 8.693-9.33v-28.306h-5.619v28.73c0 2.651-1.113 3.605-2.968 3.605-1.856 0-2.969-.954-2.969-3.605v-28.73h-5.831v28.306c0 5.937 2.969 9.33 8.694 9.33zM372.766 172.134h5.195v-27.086h.106l6.997 27.086h5.99v-37.105h-5.195v22.21h-.106l-5.672-22.21h-7.315v37.105zM395.4 172.134h8.906c5.831 0 8.693-3.233 8.693-9.17V144.2c0-5.937-2.862-9.171-8.693-9.171H395.4v37.105zm5.831-5.3V140.33h2.969c1.855 0 2.968.954 2.968 3.605v19.294c0 2.651-1.113 3.605-2.968 3.605h-2.969zM425.403 172.134h5.83v-11.82l2.333-4.718 4.929 16.538h6.096l-7.05-23.482 6.944-13.623h-5.831l-7.421 15.638v-15.638h-5.83v37.105zM455.776 172.665c5.725 0 8.693-3.393 8.693-9.33v-28.306h-5.619v28.73c0 2.651-1.113 3.605-2.968 3.605s-2.969-.954-2.969-3.605v-28.73h-5.83v28.306c0 5.937 2.968 9.33 8.693 9.33zM468.604 172.134h15.425v-5.3h-9.595v-31.805h-5.83v37.105zM487.262 172.134h5.831V140.33h6.096v-5.301h-18.023v5.301h6.096v31.804zM510.479 172.665c5.725 0 8.694-3.393 8.694-9.33v-28.306h-5.619v28.73c0 2.651-1.113 3.605-2.969 3.605-1.855 0-2.968-.954-2.968-3.605v-28.73h-5.831v28.306c0 5.937 2.969 9.33 8.693 9.33zM523.307 172.134h5.831v-15.902h2.014c2.651 0 3.658 1.113 3.658 4.559v6.785c0 3.021.212 3.604.53 4.558h5.937c-.583-1.378-.636-2.703-.636-4.505v-6.52c0-4.188-.954-6.944-3.87-7.845v-.106c2.597-1.06 3.817-3.499 3.817-7.315v-2.279c0-5.725-2.598-8.535-8.641-8.535h-8.64v37.105zm5.831-21.202V140.33h2.65c2.068 0 2.969 1.166 2.969 3.817v2.862c0 2.968-1.325 3.923-3.499 3.923h-2.12zM576.678 171.229c-3.416 1.035-6.341 1.553-8.774 1.553-4.141 0-7.519-1.377-10.133-4.129-2.614-2.752-3.921-6.319-3.921-10.702 0-4.262 1.152-7.756 3.455-10.483 2.304-2.726 5.25-4.089 8.839-4.089 3.399 0 6.027 1.208 7.881 3.624 1.855 2.415 2.783 5.849 2.783 10.301l-.026 1.579h-17.73c.742 6.677 4.012 10.016 9.81 10.016 2.122 0 4.728-.569 7.816-1.708v4.038zm-17.393-16.177h12.398c0-5.228-1.95-7.842-5.849-7.842-3.917 0-6.1 2.614-6.549 7.842zM582.682 166.516h5.619v5.619h-5.619zM593.92 172.134h7.739l5.619-37.105h-5.354l-3.817 28.783h-.106l-3.816-28.783h-5.884l5.619 37.105zM607.278 166.516h5.619v5.619h-5.619z" style="fill:#ca1478;fill-rule:nonzero" />
  </g>
</svg>
