<svg xmlns="http://www.w3.org/2000/svg" stroke-width="2" width="24" height="24" stroke="currentColor" stroke-linecap="round" stroke-linejoin="round" fill="none" viewBox="0 0 24 24" class="lucide lucide-school w-12 h-12 text-blue-600 mb-2" data-astro-source-file="/Users/akgngr/httpd/astro-mosaik-russelsheim/node_modules/.pnpm/lucide-astro@0.469.0_astro@5.1.1_@types+node@22.10.3_jiti@1.21.7_rollup@4.29.1_terser@5.37.0__5e7zc6dzqabvgb7u7ff5snq2xm/node_modules/lucide-astro/dist/.Layout.astro" data-astro-source-loc="26:76">  <path d="M14 22v-4a2 2 0 1 0-4 0v4" data-astro-source-file="/Users/akgngr/httpd/astro-mosaik-russelsheim/node_modules/.pnpm/lucide-astro@0.469.0_astro@5.1.1_@types+node@22.10.3_jiti@1.21.7_rollup@4.29.1_terser@5.37.0__5e7zc6dzqabvgb7u7ff5snq2xm/node_modules/lucide-astro/dist/School.astro" data-astro-source-loc="7:3"></path> <path d="m18 10 3.447 1.724a1 1 0 0 1 .553.894V20a2 2 0 0 1-2 2H4a2 2 0 0 1-2-2v-7.382a1 1 0 0 1 .553-.894L6 10" data-astro-source-file="/Users/akgngr/httpd/astro-mosaik-russelsheim/node_modules/.pnpm/lucide-astro@0.469.0_astro@5.1.1_@types+node@22.10.3_jiti@1.21.7_rollup@4.29.1_terser@5.37.0__5e7zc6dzqabvgb7u7ff5snq2xm/node_modules/lucide-astro/dist/School.astro" data-astro-source-loc="8:3"></path> <path d="M18 5v17" data-astro-source-file="/Users/akgngr/httpd/astro-mosaik-russelsheim/node_modules/.pnpm/lucide-astro@0.469.0_astro@5.1.1_@types+node@22.10.3_jiti@1.21.7_rollup@4.29.1_terser@5.37.0__5e7zc6dzqabvgb7u7ff5snq2xm/node_modules/lucide-astro/dist/School.astro" data-astro-source-loc="9:3"></path> <path d="m4 6 7.106-3.553a2 2 0 0 1 1.788 0L20 6" data-astro-source-file="/Users/akgngr/httpd/astro-mosaik-russelsheim/node_modules/.pnpm/lucide-astro@0.469.0_astro@5.1.1_@types+node@22.10.3_jiti@1.21.7_rollup@4.29.1_terser@5.37.0__5e7zc6dzqabvgb7u7ff5snq2xm/node_modules/lucide-astro/dist/School.astro" data-astro-source-loc="10:3"></path> <path d="M6 5v17" data-astro-source-file="/Users/akgngr/httpd/astro-mosaik-russelsheim/node_modules/.pnpm/lucide-astro@0.469.0_astro@5.1.1_@types+node@22.10.3_jiti@1.21.7_rollup@4.29.1_terser@5.37.0__5e7zc6dzqabvgb7u7ff5snq2xm/node_modules/lucide-astro/dist/School.astro" data-astro-source-loc="11:3"></path> <circle cx="12" cy="9" r="2" data-astro-source-file="/Users/akgngr/httpd/astro-mosaik-russelsheim/node_modules/.pnpm/lucide-astro@0.469.0_astro@5.1.1_@types+node@22.10.3_jiti@1.21.7_rollup@4.29.1_terser@5.37.0__5e7zc6dzqabvgb7u7ff5snq2xm/node_modules/lucide-astro/dist/School.astro" data-astro-source-loc="12:3"></circle>  </svg>